<?xml version="1.0" encoding="iso-8859-1"?>
<!-- Generator: Adobe Illustrator 19.0.0, SVG Export Plug-In . SVG Version: 6.00 Build 0)  -->
<svg version="1.1" id="Capa_1" xmlns="http://www.w3.org/2000/svg" xmlns:xlink="http://www.w3.org/1999/xlink" x="0px" y="0px"
	 viewBox="0 0 512 512" style="enable-background:new 0 0 512 512;" xml:space="preserve">
<g>
	<g>
		<path d="M351.192,220.211L286.256,20.917l-0.35-1.073l-0.507-1.01C279.593,7.261,267.942,0.044,254.993,0c-0.04,0-0.079,0-0.119,0
			c-12.9,0-24.546,7.129-30.414,18.626l-0.519,1.019l-66.449,200.464c-2.503,5.942-2.015,12.645,1.394,18.21
			c3.67,5.993,10.059,9.572,17.087,9.572h26.881v246.453c0,9.736,7.92,17.656,17.656,17.656h67.555
			c9.736,0,17.656-7.92,17.656-17.656V247.881h26.944c6.999,0,13.375-3.556,17.051-9.514
			C353.131,232.835,353.652,226.15,351.192,220.211z M292.181,217.829v-0.001c-9.105,0-16.512,7.408-16.512,16.512v247.606h-42.762
			V234.35c0-9.105-7.408-16.512-16.512-16.512h-26.489l61.721-186.2c0.942-1.289,2.249-1.584,3.247-1.584c0.005,0,0.011,0,0.017,0
			c1.002,0.003,2.318,0.304,3.259,1.612l60.657,186.163H292.181z"/>
	</g>
</g>
<g>
	<g>
		<path d="M148.397,87.241L122.831,68.92c-6.745-4.833-16.133-3.286-20.967,3.461c-4.833,6.745-3.285,16.133,3.461,20.967
			l25.566,18.321c2.651,1.899,5.709,2.814,8.74,2.814c4.68,0,9.292-2.18,12.227-6.275
			C156.692,101.462,155.144,92.075,148.397,87.241z"/>
	</g>
</g>
<g>
	<g>
		<path d="M123.17,181.838l-58.607-19.635c-7.866-2.642-16.385,1.606-19.021,9.475c-2.637,7.868,1.606,16.385,9.475,19.021
			l58.607,19.635c1.583,0.531,3.193,0.782,4.775,0.782c6.282,0,12.14-3.972,14.246-10.257
			C135.282,192.99,131.039,184.473,123.17,181.838z"/>
	</g>
</g>
<g>
	<g>
		<path d="M104.736,283.453H38.158c-8.299,0-15.027,6.728-15.027,15.027c0,8.299,6.728,15.027,15.027,15.027h66.578
			c8.299,0,15.027-6.728,15.027-15.027C119.762,290.181,113.034,283.453,104.736,283.453z"/>
	</g>
</g>
<g>
	<g>
		<path d="M122.904,416.65c-2.501-7.913-10.947-12.299-18.856-9.797l-37.13,11.74c-7.913,2.501-12.3,10.944-9.797,18.856
			c2.025,6.407,7.944,10.501,14.323,10.501c1.501,0,3.026-0.227,4.533-0.703l37.13-11.74
			C121.019,433.005,125.406,424.563,122.904,416.65z"/>
	</g>
</g>
<g>
	<g>
		<path d="M410.135,72.355c-4.835-6.746-14.222-8.298-20.967-3.461l-25.566,18.321c-6.746,4.834-8.295,14.221-3.461,20.967
			c2.935,4.095,7.545,6.275,12.227,6.275c3.029,0,6.09-0.914,8.74-2.814l25.566-18.321C413.42,88.488,414.969,79.101,410.135,72.355
			z"/>
	</g>
</g>
<g>
	<g>
		<path d="M466.457,171.654c-2.636-7.87-11.153-12.116-19.021-9.475l-58.606,19.634c-7.869,2.636-12.111,11.153-9.475,19.021
			c2.106,6.286,7.963,10.257,14.246,10.257c1.582,0,3.192-0.251,4.774-0.782l58.606-19.634
			C464.851,188.039,469.094,179.523,466.457,171.654z"/>
	</g>
</g>
<g>
	<g>
		<path d="M473.842,283.428h-66.578c-8.299,0-15.027,6.728-15.027,15.027c0,8.299,6.728,15.027,15.027,15.027h66.578
			c8.299,0,15.027-6.728,15.027-15.027C488.869,290.156,482.142,283.428,473.842,283.428z"/>
	</g>
</g>
<g>
	<g>
		<path d="M445.082,418.567l-37.13-11.74c-7.911-2.507-16.355,1.885-18.856,9.797c-2.502,7.912,1.884,16.355,9.797,18.856
			l37.13,11.74c1.507,0.478,3.032,0.703,4.533,0.703c6.379,0,12.298-4.095,14.323-10.501
			C457.383,429.511,452.996,421.068,445.082,418.567z"/>
	</g>
</g>
<g>
</g>
<g>
</g>
<g>
</g>
<g>
</g>
<g>
</g>
<g>
</g>
<g>
</g>
<g>
</g>
<g>
</g>
<g>
</g>
<g>
</g>
<g>
</g>
<g>
</g>
<g>
</g>
<g>
</g>
</svg>
