<svg id="Capa_1" height="36" viewBox="0 0 512 512" width="36" xmlns="http://www.w3.org/2000/svg"><g id="XMLID_1_"><path d="M440 248c4.42 0 8 3.58 8 8s-3.58 8-8 8h-16c-4.42 0-8-3.58-8-8s3.58-8 8-8z"/><path d="M433.23 82.51c96.33 97.36 95.49 254.39-1.87 350.72s-254.39 95.49-350.72-1.87c-.63-.62-1.25-1.24-1.87-1.87-96.33-97.36-95.49-254.39 1.87-350.72s254.39-95.49 350.72 1.87c.63.62 1.25 1.24 1.87 1.87zm-13.18 337.54c90.6-90.6 90.6-237.5 0-328.1s-237.5-90.6-328.1 0-90.6 237.5 0 328.1 237.5 90.6 328.1 0z"/><path d="M408.74 103.27c84.35 84.36 84.35 221.12-.01 305.47-84.35 84.36-221.12 84.36-305.47 0s-84.35-221.12 0-305.48c84.36-84.35 221.13-84.35 305.48.01zM456 256c0-110.28-89.72-200-200-200S56 145.72 56 256s89.72 200 200 200 200-89.72 200-200z"/><path d="M391.76 120.23a8.006 8.006 0 01.01 11.32l-11.32 11.31a7.985 7.985 0 01-11.31 0 7.985 7.985 0 010-11.31l11.31-11.31a7.994 7.994 0 0111.31-.01zm0 260.22a7.985 7.985 0 010 11.31 7.985 7.985 0 01-11.31 0l-11.31-11.31a7.985 7.985 0 010-11.31 7.985 7.985 0 0111.31 0zM286.41 147.21c2.65 3.54 1.93 8.55-1.61 11.2s-8.55 1.93-11.2-1.61L264 144v80c0 .33-.03.67-.07 1h.01c2.91.75 5.71 1.9 8.3 3.43 15.23 8.96 20.3 28.57 11.34 43.8-8.97 15.22-28.58 20.3-43.81 11.33-15.22-8.96-20.3-28.57-11.33-43.8l-18.1-18.1c-3.13-3.13-3.13-8.19 0-11.32s8.19-3.13 11.32 0l18.1 18.1c2.59-1.54 5.38-2.7 8.3-3.44h.01c-.04-.33-.07-.67-.07-1v-80l-9.6 12.8c-2.65 3.53-7.67 4.25-11.2 1.6s-4.25-7.67-1.6-11.2l24-32c.45-.61.99-1.15 1.6-1.6 3.53-2.65 8.55-1.93 11.2 1.6l24 32zm-22.04 122.43c7.53-4.62 9.89-14.47 5.27-22-4.62-7.54-14.47-9.9-22-5.28l-.01.01a16.123 16.123 0 00-5.26 5.26l-.01.01A16.031 16.031 0 00240 256c0 8.83 7.16 16 16 16 2.95 0 5.85-.82 8.37-2.36zM264 424v16c0 4.42-3.58 8-8 8s-8-3.58-8-8v-16c0-4.42 3.58-8 8-8s8 3.58 8 8zm0-352v16c0 4.42-3.58 8-8 8s-8-3.58-8-8V72c0-4.42 3.58-8 8-8s8 3.58 8 8zm-121.14 59.55a7.985 7.985 0 010 11.31 7.985 7.985 0 01-11.31 0l-11.31-11.31a7.997 7.997 0 010-11.32 7.994 7.994 0 0111.31.01zm0 237.59a7.985 7.985 0 010 11.31l-11.31 11.32c-3.12 3.12-8.19 3.12-11.31 0-3.13-3.13-3.13-8.2 0-11.32l11.31-11.31a7.985 7.985 0 0111.31 0zM88 248c4.42 0 8 3.58 8 8s-3.58 8-8 8H72c-4.42 0-8-3.58-8-8s3.58-8 8-8z"/></g></svg>