<svg version="1.1" id="Capa_1" xmlns="http://www.w3.org/2000/svg" x="0" y="0" viewBox="0 0 512 512" xml:space="preserve"><path d="M351.192 220.211L286.256 20.917l-.35-1.073-.507-1.01C279.593 7.261 267.942.044 254.993 0h-.119c-12.9 0-24.546 7.129-30.414 18.626l-.519 1.019-66.449 200.464c-2.503 5.942-2.015 12.645 1.394 18.21 3.67 5.993 10.059 9.572 17.087 9.572h26.881v246.453c0 9.736 7.92 17.656 17.656 17.656h67.555c9.736 0 17.656-7.92 17.656-17.656V247.881h26.944c6.999 0 13.375-3.556 17.051-9.514 3.415-5.532 3.936-12.217 1.476-18.156zm-59.011-2.382v-.001c-9.105 0-16.512 7.408-16.512 16.512v247.606h-42.762V234.35c0-9.105-7.408-16.512-16.512-16.512h-26.489l61.721-186.2c.942-1.289 2.249-1.584 3.247-1.584h.017c1.002.003 2.318.304 3.259 1.612l60.657 186.163h-26.626zM148.397 87.241L122.831 68.92c-6.745-4.833-16.133-3.286-20.967 3.461-4.833 6.745-3.285 16.133 3.461 20.967l25.566 18.321a14.962 14.962 0 008.74 2.814c4.68 0 9.292-2.18 12.227-6.275 4.834-6.746 3.286-16.133-3.461-20.967zm-25.227 94.597l-58.607-19.635c-7.866-2.642-16.385 1.606-19.021 9.475-2.637 7.868 1.606 16.385 9.475 19.021l58.607 19.635c1.583.531 3.193.782 4.775.782 6.282 0 12.14-3.972 14.246-10.257 2.637-7.869-1.606-16.386-9.475-19.021zm-18.434 101.615H38.158c-8.299 0-15.027 6.728-15.027 15.027s6.728 15.027 15.027 15.027h66.578c8.299 0 15.027-6.728 15.027-15.027-.001-8.299-6.729-15.027-15.027-15.027zm18.168 133.197c-2.501-7.913-10.947-12.299-18.856-9.797l-37.13 11.74c-7.913 2.501-12.3 10.944-9.797 18.856 2.025 6.407 7.944 10.501 14.323 10.501 1.501 0 3.026-.227 4.533-.703l37.13-11.74c7.912-2.502 12.299-10.944 9.797-18.857zM410.135 72.355c-4.835-6.746-14.222-8.298-20.967-3.461l-25.566 18.321c-6.746 4.834-8.295 14.221-3.461 20.967a15.006 15.006 0 0012.227 6.275c3.029 0 6.09-.914 8.74-2.814l25.566-18.321c6.746-4.834 8.295-14.221 3.461-20.967zm56.322 99.299c-2.636-7.87-11.153-12.116-19.021-9.475l-58.606 19.634c-7.869 2.636-12.111 11.153-9.475 19.021 2.106 6.286 7.963 10.257 14.246 10.257 1.582 0 3.192-.251 4.774-.782l58.606-19.634c7.87-2.636 12.113-11.152 9.476-19.021zm7.385 111.774h-66.578c-8.299 0-15.027 6.728-15.027 15.027s6.728 15.027 15.027 15.027h66.578c8.299 0 15.027-6.728 15.027-15.027s-6.727-15.027-15.027-15.027zm-28.76 135.139l-37.13-11.74c-7.911-2.507-16.355 1.885-18.856 9.797-2.502 7.912 1.884 16.355 9.797 18.856l37.13 11.74c1.507.478 3.032.703 4.533.703 6.379 0 12.298-4.095 14.323-10.501 2.504-7.911-1.883-16.354-9.797-18.855z"/></svg>